<svg width="256" height="68" fill="none" xmlns="http://www.w3.org/2000/svg"><path d="M49.642 67.43C67.865 67.518 84.5 52.6 84.5 34.452 84.5 14.608 67.865.891 49.642.896H33.96C15.518.891.34 14.611.34 34.452c0 18.152 15.178 33.066 33.62 32.978h15.682Z" fill="#006095"/><path d="M40.955 52.123V16.087c7.258 2.779 12.411 9.792 12.423 18.017-.012 8.227-5.165 15.236-12.423 18.02ZM14.694 34.104c.016-8.22 5.16-15.23 12.415-18.016v36.028c-7.254-2.785-12.399-9.79-12.415-18.012Zm19.34-30.458c-16.852.006-30.506 13.637-30.51 30.458.004 16.82 13.658 30.448 30.51 30.453 16.856-.005 30.513-13.633 30.515-30.453-.002-16.821-13.66-30.452-30.516-30.458Z" fill="#fff"/><path d="M95.186 15.21c0-3.146-1.646-2.94-3.222-2.973v-.91c1.366.067 2.767.067 4.137.067 1.472 0 3.47-.067 6.067-.067 9.078 0 14.021 6.052 14.021 12.249 0 3.464-2.032 12.176-14.444 12.176-1.787 0-3.437-.069-5.084-.069-1.576 0-3.12.034-4.697.07v-.911c2.101-.21 3.12-.28 3.222-2.66V15.21Zm3.436 16.413c0 2.694 1.931 3.009 3.647 3.009 7.575 0 10.063-5.704 10.063-10.918 0-6.542-4.208-11.265-10.974-11.265-1.44 0-2.102.102-2.736.14v19.034Zm18.796 3.22h.666c.98 0 1.682 0 1.682-1.157v-9.481c0-1.539-.525-1.752-1.824-2.448v-.561c1.648-.493 3.613-1.154 3.751-1.259.247-.14.456-.177.632-.177.174 0 .246.21.246.492v13.434c0 1.157.771 1.157 1.754 1.157h.595v.91c-1.193 0-2.421-.07-3.68-.07-1.263 0-2.526.034-3.822.07v-.91Zm3.752-20.47c-.914 0-1.718-.84-1.718-1.75 0-.876.842-1.683 1.718-1.683.909 0 1.717.738 1.717 1.683 0 .946-.773 1.75-1.717 1.75Zm7.081 10.04c0-1.293-.388-1.642-2.032-2.307v-.665c1.506-.489 2.942-.945 4.627-1.681.104 0 .207.071.207.35v2.275c2.001-1.433 3.72-2.625 6.072-2.625 2.978 0 4.029 2.17 4.029 4.9v9.026c0 1.157.77 1.157 1.753 1.157h.631v.91c-1.229 0-2.456-.07-3.715-.07-1.264 0-2.527.034-3.788.07v-.91h.63c.984 0 1.681 0 1.681-1.157v-9.06c0-1.997-1.221-2.975-3.223-2.975-1.121 0-2.909.909-4.07 1.68v10.355c0 1.157.776 1.157 1.758 1.157h.63v.91c-1.227 0-2.456-.07-3.718-.07-1.26 0-2.525.034-3.786.07v-.91h.633c.981 0 1.681 0 1.681-1.157v-9.273Zm17.953 1.683c-.072.315-.072.838 0 2.03.206 3.322 2.351 6.05 5.152 6.05 1.931 0 3.441-1.05 4.735-2.343l.49.49c-1.613 2.135-3.612 3.954-6.484 3.954-5.577 0-6.698-5.39-6.698-7.628 0-6.859 4.626-8.889 7.079-8.889 2.842 0 5.895 1.784 5.926 5.493 0 .213 0 .42-.031.632l-.318.21h-9.851Zm6.207-1.12c.876 0 .978-.457.978-.876 0-1.784-1.086-3.219-3.051-3.219-2.137 0-3.609 1.572-4.029 4.094h6.102Zm4.802 9.867h.947c.978 0 1.68 0 1.68-1.157v-9.83c0-1.085-1.296-1.296-1.823-1.576v-.523c2.56-1.086 3.963-1.997 4.283-1.997.206 0 .31.105.31.457v3.148h.075c.873-1.364 2.348-3.605 4.486-3.605.877 0 1.997.594 1.997 1.855 0 .945-.664 1.787-1.646 1.787-1.091 0-1.091-.842-2.316-.842-.597 0-2.56.805-2.56 2.906v8.22c0 1.157.7 1.157 1.683 1.157h1.962v.91c-1.929-.036-3.396-.07-4.906-.07-1.437 0-2.91.034-4.172.07v-.91Zm13.497-3.956c.457 2.31 1.859 4.27 4.419 4.27 2.066 0 2.837-1.26 2.837-2.483 0-4.13-7.641-2.802-7.641-8.434 0-1.96 1.58-4.48 5.435-4.48 1.12 0 2.627.316 3.994 1.017l.247 3.566h-.807c-.35-2.203-1.576-3.462-3.821-3.462-1.404 0-2.734.804-2.734 2.309 0 4.096 8.134 2.834 8.134 8.327 0 2.31-1.859 4.761-6.032 4.761-1.402 0-3.05-.49-4.276-1.19l-.387-4.024.632-.177Zm41.721-13.227h-.874c-.668-4.091-3.578-5.738-7.503-5.738-4.034 0-9.891 2.694-9.891 11.091 0 7.072 5.053 12.144 10.45 12.144 3.47 0 6.348-2.378 7.05-6.054l.804.21-.804 5.108c-1.473.913-5.436 1.856-7.752 1.856-8.201 0-13.389-5.284-13.389-13.157 0-7.174 6.414-12.32 13.286-12.32 2.839 0 5.575.913 8.273 1.859l.35 5.001Zm1.265 17.183h.663c.984 0 1.686 0 1.686-1.157V14.199c0-2.277-.526-2.347-1.858-2.731v-.56c1.401-.454 2.874-1.084 3.61-1.506.383-.208.666-.386.769-.386.213 0 .284.212.284.493v24.177c0 1.157.771 1.157 1.753 1.157h.592v.91c-1.188 0-2.416-.07-3.678-.07-1.261 0-2.523.034-3.821.07v-.91Zm22.511-1.017c0 .633.384.666.979.666.422 0 .946-.033 1.403-.033v.736c-1.509.139-4.383.873-5.05 1.083l-.176-.106V33.34c-2.101 1.714-3.716 2.94-6.208 2.94-1.891 0-3.855-1.226-3.855-4.164v-8.96c0-.91-.139-1.785-2.1-1.959v-.666c1.263-.034 4.064-.243 4.521-.243.389 0 .389.243.389 1.014v9.026c0 1.051 0 4.06 3.048 4.06 1.192 0 2.769-.91 4.24-2.132v-9.417c0-.698-1.682-1.081-2.942-1.431v-.63c3.152-.212 5.119-.49 5.467-.49.284 0 .284.243.284.63v12.91Zm6.976-11.546c1.4-1.19 3.294-2.52 5.224-2.52 4.068 0 6.519 3.537 6.519 7.35 0 4.583-3.364 9.168-8.381 9.168-2.592 0-3.959-.841-4.872-1.225l-1.05.803-.734-.383c.31-2.065.489-4.095.489-6.229V14.2c0-2.277-.528-2.347-1.859-2.731v-.56c1.405-.454 2.874-1.084 3.612-1.506.385-.208.663-.386.773-.386.21 0 .279.212.279.493V22.28Zm0 9.517c0 1.33 1.261 3.572 3.61 3.572 3.753 0 5.329-3.676 5.329-6.792 0-3.778-2.872-6.926-5.608-6.926-1.3 0-2.385.84-3.331 1.646v8.5Zm-151.26 24.3h.27c.685 0 1.41-.092 1.41-1.084V45.04c0-.993-.725-1.087-1.41-1.087h-.27v-.572c.745 0 1.89.075 2.827.075.953 0 2.096-.075 2.993-.075v.572h-.268c-.684 0-1.41.094-1.41 1.087v9.974c0 .992.726 1.084 1.41 1.084h.268v.574c-.915 0-2.063-.075-3.013-.075-.936 0-2.062.075-2.806.075v-.574Zm18.927-3.179.038-.037v-7.139c0-1.562-1.089-1.79-1.661-1.79h-.42v-.572c.898 0 1.775.076 2.671.076.782 0 1.567-.076 2.347-.076v.572h-.284c-.804 0-1.7.152-1.7 2.417v8.665c0 .666.019 1.331.113 1.922h-.725l-9.824-10.93v7.845c0 1.657.322 2.226 1.793 2.226h.323v.574c-.819 0-1.638-.075-2.46-.075-.856 0-1.735.075-2.594.075v-.574h.267c1.316 0 1.716-.893 1.716-2.414v-8.02c0-1.064-.88-1.711-1.734-1.711h-.248v-.572c.723 0 1.468.076 2.191.076.573 0 1.128-.076 1.699-.076l8.492 9.538Zm5.832-8.586c-1.433 0-1.487.343-1.773 1.731h-.572c.074-.532.171-1.065.229-1.618.077-.534.114-1.065.114-1.617h.458c.153.573.63.552 1.148.552h9.84c.517 0 .992-.018 1.032-.59l.455.076c-.074.514-.151 1.027-.209 1.542-.035.515-.035 1.03-.035 1.542l-.573.211c-.039-.703-.135-1.83-1.412-1.83h-3.129v10.13c0 1.469.669 1.636 1.582 1.636h.363v.574c-.744 0-2.08-.075-3.108-.075-1.145 0-2.481.075-3.227.075v-.574h.363c1.053 0 1.584-.093 1.584-1.596v-10.17h-3.13Zm11.541 11.765h.268c.687 0 1.412-.092 1.412-1.084V45.04c0-.993-.725-1.087-1.412-1.087h-.268v-.572c1.161 0 3.15.075 4.749.075 1.605 0 3.586-.075 4.883-.075a32.28 32.28 0 0 0 .041 2.914l-.575.153c-.092-1.237-.32-2.227-2.325-2.227h-2.648v4.986h2.267c1.144 0 1.394-.645 1.507-1.675h.571a43.672 43.672 0 0 0-.057 2.227c0 .726.019 1.448.057 2.172l-.571.113c-.113-1.141-.171-1.884-1.49-1.884h-2.284v4.436c0 1.237 1.101 1.237 2.323 1.237 2.29 0 3.3-.153 3.873-2.32l.534.13a41.493 41.493 0 0 0-.647 3.03c-1.223 0-3.417-.076-5.132-.076-1.718 0-3.989.075-5.076.075v-.574Zm13.429-10.7c0-1.389-.763-1.445-1.355-1.445h-.344v-.573c.611 0 1.793.077 2.958.077 1.143 0 2.06-.077 3.07-.077 2.402 0 4.541.647 4.541 3.354 0 1.71-1.144 2.758-2.651 3.351l3.261 4.87c.535.806.915 1.032 1.851 1.142v.575c-.63 0-1.241-.075-1.869-.075-.592 0-1.204.075-1.793.075-1.469-1.923-2.731-3.979-3.969-6.172h-1.257v4.077c0 1.468.685 1.52 1.561 1.52h.345v.575c-1.09 0-2.192-.075-3.281-.075-.917 0-1.813.075-2.767.075v-.575h.344c.708 0 1.355-.319 1.355-1.024v-9.675Zm2.443 4.417h.932c1.909 0 2.937-.722 2.937-2.97 0-1.692-1.086-2.778-2.786-2.778-.573 0-.817.059-1.083.076v5.672Zm21.84 3.104.035-.037v-7.139c0-1.562-1.086-1.79-1.658-1.79h-.418v-.572c.896 0 1.771.076 2.67.076.783 0 1.562-.076 2.35-.076v.572h-.288c-.801 0-1.698.152-1.698 2.417v8.665c0 .666.018 1.331.112 1.922h-.723l-9.824-10.93v7.845c0 1.657.323 2.226 1.792 2.226h.324v.574c-.819 0-1.64-.075-2.459-.075-.861 0-1.738.075-2.596.075v-.574h.265c1.318 0 1.719-.893 1.719-2.414v-8.02c0-1.064-.878-1.711-1.736-1.711h-.248v-.572c.722 0 1.47.076 2.195.076.567 0 1.123-.076 1.697-.076l8.489 9.538Zm6.046 1.03c-.193.647-.423 1.145-.423 1.485 0 .572.802.664 1.43.664h.213v.574a42.98 42.98 0 0 0-2.312-.074c-.686 0-1.368.033-2.058.074v-.574h.116c.743 0 1.374-.437 1.656-1.238l3.056-8.736c.245-.704.592-1.657.707-2.364a9.76 9.76 0 0 0 1.734-.816c.059-.02.092-.04.152-.04.057 0 .092 0 .136.059.057.152.11.323.172.475l3.51 9.959c.228.666.455 1.37.702 1.943.231.533.632.758 1.262.758h.114v.574a53.794 53.794 0 0 0-2.632-.074c-.934 0-1.891.033-2.864.074v-.574h.212c.436 0 1.183-.074 1.183-.55 0-.247-.172-.76-.385-1.372l-.742-2.208h-4.33l-.609 1.982Zm2.785-8.435h-.04l-1.774 5.389h3.565l-1.751-5.39Zm8.221-1.181c-1.431 0-1.488.343-1.775 1.731h-.573c.075-.532.172-1.065.231-1.618.076-.534.112-1.065.112-1.617h.46c.151.573.63.552 1.143.552h9.846c.513 0 .989-.018 1.028-.59l.457.076c-.073.514-.15 1.027-.207 1.542-.042.515-.042 1.03-.042 1.542l-.571.211c-.035-.703-.131-1.83-1.41-1.83h-3.129v10.13c0 1.469.669 1.636 1.583 1.636h.363v.574c-.744 0-2.079-.075-3.109-.075-1.143 0-2.482.075-3.225.075v-.574h.362c1.052 0 1.585-.093 1.585-1.596v-10.17h-3.129Zm11.632 11.765h.268c.688 0 1.41-.092 1.41-1.084V45.04c0-.993-.722-1.087-1.41-1.087h-.268v-.572c.746 0 1.889.075 2.822.075.957 0 2.101-.075 2.999-.075v.572h-.267c-.688 0-1.414.094-1.414 1.087v9.974c0 .992.726 1.084 1.414 1.084h.267v.574c-.917 0-2.062-.075-3.014-.075-.937 0-2.061.075-2.807.075v-.574Zm13.429-13.001c4.067 0 7.308 2.514 7.308 6.57 0 4.38-3.148 7.29-7.21 7.29-4.047 0-7.136-2.74-7.136-6.834 0-3.96 3.071-7.026 7.038-7.026Zm.288 13.023c3.702 0 4.346-3.259 4.346-6.034 0-2.784-1.502-6.153-4.671-6.153-3.339 0-4.33 2.971-4.33 5.52 0 3.408 1.564 6.666 4.655 6.666Zm19.875-3.2.039-.038v-7.139c0-1.562-1.09-1.79-1.662-1.79h-.414v-.572c.893 0 1.772.076 2.665.076.786 0 1.568-.076 2.351-.076v.572h-.288c-.8 0-1.698.152-1.698 2.417v8.665c0 .666.018 1.331.115 1.922h-.724l-9.827-10.93v7.845c0 1.657.325 2.226 1.792 2.226h.326v.574c-.821 0-1.639-.075-2.46-.075-.858 0-1.738.075-2.598.075v-.574h.27c1.318 0 1.715-.893 1.715-2.414v-8.02c0-1.064-.873-1.711-1.735-1.711h-.25v-.572c.727 0 1.471.076 2.195.076.572 0 1.124-.076 1.698-.076l8.49 9.538Zm6.044 1.03c-.187.646-.419 1.144-.419 1.484 0 .572.804.664 1.43.664h.213v.574a43.07 43.07 0 0 0-2.31-.074c-.689 0-1.373.033-2.057.074v-.574h.108c.747 0 1.379-.437 1.66-1.238l3.057-8.736c.247-.704.592-1.657.703-2.364a9.758 9.758 0 0 0 1.739-.816c.055-.02.093-.04.151-.04.057 0 .094 0 .132.059.058.152.116.323.174.475l3.508 9.959c.229.666.457 1.37.708 1.943.229.533.631.758 1.259.758h.116v.574a53.925 53.925 0 0 0-2.636-.074c-.932 0-1.888.033-2.861.074v-.574h.211c.435 0 1.185-.074 1.185-.55 0-.247-.174-.76-.386-1.372l-.741-2.208h-4.332l-.612 1.982Zm2.788-8.436h-.038l-1.777 5.389h3.571l-1.756-5.39Zm12.191 9.291c0 .764.53.99 1.141 1.068.782.058 1.64.058 2.521-.039.799-.096 1.486-.552 1.829-1.029.304-.419.475-.951.592-1.37h.552c-.209 1.084-.477 2.153-.707 3.237-1.674 0-3.359-.074-5.033-.074-1.682 0-3.358.074-5.037.074v-.574h.263c.689 0 1.435-.092 1.435-1.274v-9.785c0-.992-.746-1.086-1.435-1.086h-.263v-.572c1.008 0 2.002.076 3.012.076.976 0 1.928-.076 2.902-.076v.572h-.48c-.723 0-1.292.02-1.292 1.028v9.824Z" fill="#1A1918"/></svg>