<svg width="16" height="16" viewBox="0 0 16 16" fill="none" xmlns="http://www.w3.org/2000/svg">
<path d="M8.00103 13.8165C11.2131 13.8165 13.8177 11.2119 13.8177 7.99981C13.8177 4.78778 11.2131 2.18315 8.00103 2.18315C4.78836 2.18315 2.18438 4.78776 2.18438 7.99981C2.18438 11.2119 4.78835 13.8165 8.00103 13.8165ZM14.5177 7.99981C14.5177 11.5984 11.5997 14.5165 8.00103 14.5165C4.40171 14.5165 1.48438 11.5985 1.48438 7.99981C1.48438 4.40121 4.40171 1.48315 8.00103 1.48315C11.5997 1.48315 14.5177 4.40119 14.5177 7.99981Z" fill="#1D202F" stroke="#A7A7A7" stroke-width="0.5"/>
<path opacity="0.4" fill-rule="evenodd" clip-rule="evenodd" d="M8.00234 11.1304C7.67096 11.1304 7.40234 10.8617 7.40234 10.5304V7.58437C7.40234 7.253 7.67096 6.98438 8.00234 6.98438C8.33371 6.98438 8.60234 7.253 8.60234 7.58437V10.5304C8.60234 10.8617 8.33371 11.1304 8.00234 11.1304Z" fill="#1D202F"/>
<path opacity="0.4" fill-rule="evenodd" clip-rule="evenodd" d="M8.60511 5.46914C8.60511 5.80051 8.33648 6.06914 8.00511 6.06914H7.99844C7.66707 6.06914 7.39844 5.80051 7.39844 5.46914C7.39844 5.13777 7.66707 4.86914 7.99844 4.86914H8.00511C8.33648 4.86914 8.60511 5.13777 8.60511 5.46914Z" fill="#1D202F"/>
</svg>
