<?xml version="1.0" encoding="iso-8859-1"?>
<!-- Generator: Adobe Illustrator 19.0.0, SVG Export Plug-In . SVG Version: 6.00 Build 0)  -->
<svg version="1.1" id="Capa_1" xmlns="http://www.w3.org/2000/svg" xmlns:xlink="http://www.w3.org/1999/xlink" x="0px" y="0px"
	 viewBox="0 0 512 512" style="enable-background:new 0 0 512 512;" xml:space="preserve">
<circle style="fill:#55ACE5;" cx="256" cy="256" r="256"/>
<path style="fill:#FFCC4E;" d="M500.12,172.382V333.29C467.352,436.902,370.448,511.999,256,511.999S44.648,436.902,11.88,333.29
	V172.382c0-22.256,57.915-24.175,77.579-31.562c5.674-2.132-6.426,0,0,0l313.989,13.947c6.426,0-5.684-2.132,0,0
	C423.114,162.155,500.12,150.126,500.12,172.382z"/>
<g>
	<path style="fill:#F4A22B;" d="M453.914,418.387c-6.301,7.67-13.04,14.963-20.177,21.849L256,334.084L78.252,440.235
		c-7.137-6.896-13.876-14.19-20.177-21.859l169.535-101.24h56.769L453.914,418.387z"/>
	<path style="fill:#F4A22B;" d="M500.123,172.386c0,18.265-9.613,29.424-25.297,38.787l-10.156,7.335l-8.568,6.186l-22.779,16.447
		L265.773,362.15c-3.009,1.797-6.395,2.696-9.78,2.696c-3.385,0-6.771-0.899-9.78-2.696L78.663,241.151l-22.758-16.436l-8.589-6.207
		l-10.156-7.335c-15.684-9.362-25.297-20.522-25.297-38.787h0.01c0-18.275,9.603-35.203,25.287-44.575l10.156-6.06l8.589-5.13
		l22.758-13.594l62.255-37.177l52.496-31.347l52.799-31.535c3.009-1.797,6.395-2.696,9.78-2.696c3.385,0,6.771,0.899,9.78,2.696
		l52.809,31.535l52.485,31.347l62.255,37.177l22.779,13.605l8.568,5.12l10.156,6.06c15.684,9.373,25.287,26.3,25.287,44.575
		L500.123,172.386L500.123,172.386z"/>
</g>
<path style="fill:#F2F2F2;" d="M464.669,63.027v155.481l-8.568,6.186l-22.779,16.447L265.773,362.15
	c-3.009,1.797-6.395,2.696-9.78,2.696c-3.385,0-6.771-0.899-9.78-2.696L78.663,241.151l-22.758-16.436l-8.589-6.207V63.027
	c0-15.757,12.769-28.526,28.526-28.526h360.302C451.901,34.502,464.669,47.27,464.669,63.027z"/>
<path style="fill:#D5D4E2;" d="M433.322,65.848v175.292L265.773,362.15c-3.009,1.797-6.395,2.696-9.78,2.696
	c-3.385,0-6.771-0.899-9.78-2.696L78.663,241.151V65.848H433.322z"/>
<path style="fill:#F14881;" d="M273.765,224.055H483.39c15.801,0,28.61-12.809,28.61-28.61V81.833
	c0-15.801-12.809-28.61-28.61-28.61H273.765c-15.801,0-28.61,12.809-28.61,28.61v113.612
	C245.155,211.246,257.964,224.055,273.765,224.055z"/>
<g>
	<path style="fill:#FFFFFF;" d="M299.577,89.283h-24.597c-4.723,0-8.424,3.312-8.424,7.541v83.503c0,4.443,4.18,7.666,9.937,7.666
		c5.757,0,9.937-3.225,9.937-7.666v-27.904h12.389c20.103,0,31.632-11.347,31.632-31.129v-1.009
		C330.453,100.584,319.2,89.283,299.577,89.283z M298.821,135.324h-12.389v-27.679h12.389c8.022,0,11.758,4.137,11.758,13.019v1.513
		C310.579,131.024,306.733,135.324,298.821,135.324z"/>
	<path style="fill:#FFFFFF;" d="M379.239,89.283h-22.326c-5.148,0-9.18,3.312-9.18,7.541v83.629c0,4.229,4.032,7.541,9.18,7.541
		h22.326c20.103,0,31.632-11.437,31.632-31.38v-35.95C410.873,100.722,399.342,89.283,379.239,89.283z M379.239,169.633h-11.633
		v-61.989h11.633c8.022,0,11.758,4.137,11.758,13.019v35.95C390.998,165.496,387.261,169.633,379.239,169.633z"/>
	<path style="fill:#FFFFFF;" d="M483.056,89.283h-44.274c-5.234,0-9.18,3.296-9.18,7.666v83.377c0,4.514,4.087,7.666,9.937,7.666
		c5.85,0,9.937-3.152,9.937-7.666v-33.202h16.299c4.951,0,7.541-4.238,7.541-8.424c0-5.027-3.171-8.676-7.541-8.676h-16.299v-22.382
		h33.581c4.44,0,7.541-3.826,7.541-9.306C490.597,93.007,487.496,89.283,483.056,89.283z"/>
</g>
<g>
</g>
<g>
</g>
<g>
</g>
<g>
</g>
<g>
</g>
<g>
</g>
<g>
</g>
<g>
</g>
<g>
</g>
<g>
</g>
<g>
</g>
<g>
</g>
<g>
</g>
<g>
</g>
<g>
</g>
</svg>
