<svg id="Layer" height="512" viewBox="0 0 24 24" width="512" xmlns="http://www.w3.org/2000/svg"><path id="phone-call" d="m16.552 21.752a5.2 5.2 0 0 1 -1.377-.187 18.289 18.289 0 0 1 -12.739-12.731 5.154 5.154 0 0 1 .6-4.109 5.345 5.345 0 0 1 3.483-2.425 2.259 2.259 0 0 1 2.4 1.057l1.564 2.64a2.8 2.8 0 0 1 -.86 3.758l-1.131.753a10.932 10.932 0 0 0 5 5.009l.762-1.137a2.8 2.8 0 0 1 3.763-.847l2.642 1.576a2.251 2.251 0 0 1 1.055 2.375 5.343 5.343 0 0 1 -2.426 3.487 5.176 5.176 0 0 1 -2.736.781zm-9.574-18a.743.743 0 0 0 -.148.015 3.843 3.843 0 0 0 -2.521 1.745 3.659 3.659 0 0 0 -.426 2.924 16.777 16.777 0 0 0 11.688 11.682 3.66 3.66 0 0 0 2.921-.427 3.832 3.832 0 0 0 1.743-2.5.752.752 0 0 0 -.351-.792l-2.643-1.576a1.3 1.3 0 0 0 -1.749.394l-1.115 1.664a.752.752 0 0 1 -.912.275 12.414 12.414 0 0 1 -6.614-6.63.75.75 0 0 1 .277-.913l1.661-1.113a1.3 1.3 0 0 0 .4-1.745l-1.565-2.636a.751.751 0 0 0 -.646-.369zm10.772 6.248a3.755 3.755 0 0 0 -3.75-3.75.75.75 0 0 0 0 1.5 2.253 2.253 0 0 1 2.25 2.25.75.75 0 0 0 1.5 0zm3 0a6.758 6.758 0 0 0 -6.75-6.75.75.75 0 0 0 0 1.5 5.256 5.256 0 0 1 5.25 5.25.75.75 0 0 0 1.5 0z" fill="rgb(0,0,0)"/></svg>