<svg height="512" viewBox="0 0 60 60" width="512" xmlns="http://www.w3.org/2000/svg"><g id="Page-1" fill="none" fill-rule="evenodd"><g id="009---message-alert" fill="rgb(0,0,0)" fill-rule="nonzero" transform="translate(0 -1)"><path id="Shape" d="m59.975 21.81c-.0252119-.0879777-.0562813-.1741701-.093-.258-.0165345-.0342915-.0348942-.0676727-.055-.1-.009-.013-.01-.029-.019-.042s-.039-.031-.056-.051c-.0342726-.0402735-.0717265-.0777274-.112-.112-.02-.016-.029-.039-.05-.054l-14.208-10.384c-2.7840647-5.98497874-8.7868578-9.81173501-15.3876898-9.80958972-6.6008319.00214529-12.6011364 3.83280259-15.3813102 9.81958972l-14.203 10.373c-.021.016-.031.039-.051.056-.03970013.0341976-.07680243.0712999-.111.111-.017.02-.04.03-.056.051s-.01.028-.018.041c-.02056309.0322353-.03926046.0656235-.056.1-.0221803.0458712-.04089917.0933369-.056.142-.01473554.0378589-.02709291.076601-.037.116-.00585317.038408-.0091936.077157-.01.116 0 .026-.015.048-.015.074v34.001c.0026002 1.0569743.3431929 2.0854101.972 2.935.013.021.015.045.03.065s.054.04.078.066c.93831391 1.2149146 2.38493592 1.9286307 3.92 1.934h50c1.5350641-.0053693 2.9816861-.7190854 3.92-1.934.024-.026.057-.037.078-.066s.017-.044.03-.065c.6288071-.8495899.9693998-1.8780257.972-2.935v-34c0-.026-.013-.048-.015-.074-.0008483-.0388408-.0041885-.0775871-.01-.116zm-1.975 34.19c-.0040922.3120758-.0574149.6215501-.158.917l-22.469-16.417 22.627-16.531zm-55.842.917c-.10058511-.2954499-.15390784-.6049242-.158-.917v-32.031l22.627 16.531zm1.906-33.917h9.689c2.1961004 7.1310199 8.7854786 11.9965021 16.247 11.9965021s14.0508996-4.8654822 16.247-11.9965021h9.689l-23.667 17.289c-1.358139.9387072-3.1540696.9442723-4.518.014zm51.874-2h-9.219c.4278862-2.2765162.3665279-4.6180181-.18-6.869zm-25.938-18c8.2842712 0 15 6.71572875 15 15 0 8.2842712-6.7157288 15-15 15s-15-6.7157288-15-15c.0093685-8.28038757 6.7196124-14.99063148 15-15zm-16.719 18h-9.216l9.394-6.862c-.5446808 2.2489086-.6053535 4.5878769-.178 6.862zm-8.281 38c-.58034452-.0004564-1.14791851-.1704158-1.633-.489l22.956-16.774.268.2c.9990958.6908994 2.185285 1.0603624 3.4 1.059 1.2279919.0003388 2.4267976-.3743752 3.436-1.074l.248-.181 22.958 16.77c-.4850815.3185842-1.0526555.4885436-1.633.489z"/><path id="Shape" d="m5 29c-.55228475 0-1 .4477153-1 1v10c0 .5522847.44771525 1 1 1s1-.4477153 1-1v-10c0-.5522847-.44771525-1-1-1z"/><path id="Shape" d="m5 43c-.55228475 0-1 .4477153-1 1v3c0 .5522847.44771525 1 1 1s1-.4477153 1-1v-3c0-.5522847-.44771525-1-1-1z"/><path id="Shape" d="m22 26h4c0 2.209139 1.790861 4 4 4s4-1.790861 4-4h4c.5522847 0 1-.4477153 1-1v-2c-.0052514-1.2667854-.8056491-2.3937454-2-2.816v-5.184c-.0031107-2.732017-1.5953871-5.21257906-4.078-6.353.2802069-1.20469622-.2076506-2.45787802-1.2286269-3.15603002-1.0209764-.69815201-2.3657698-.69815201-3.3867462 0-1.0209763.698152-1.5088338 1.9513338-1.2286269 3.15603002-2.4826129 1.14042094-4.0748893 3.620983-4.078 6.353v5.184c-1.1943509.4222546-1.9947486 1.5492146-2 2.816v2c0 .5522847.4477153 1 1 1zm8 2c-1.1045695 0-2-.8954305-2-2h4c0 1.1045695-.8954305 2-2 2zm-1-20c0-.55228475.4477153-1 1-1s1 .44771525 1 1c0 .028-.01.051-.012.078-.6545662-.10393871-1.3214338-.10393871-1.976 0-.002-.027-.012-.05-.012-.078zm-4 7c0-2.7614237 2.2385763-5 5-5s5 2.2385763 5 5v5h-10zm-2 8c0-.5522847.4477153-1 1-1h12c.5522847 0 1 .4477153 1 1v1h-14z"/></g></g></svg>