<svg width="223" height="44" viewBox="0 0 223 44" fill="none" xmlns="http://www.w3.org/2000/svg">
<g clip-path="url(#clip0_624_265)">
<path d="M84.4097 37.4284H83.1134V40.0085H81.9502V33.3134H84.3044C84.6879 33.3134 85.0281 33.3574 85.3294 33.4452C85.6294 33.5334 85.8839 33.6621 86.0909 33.8315C86.2979 34.0009 86.455 34.2128 86.5617 34.4638C86.6684 34.715 86.7235 35.0053 86.7235 35.3362C86.7235 35.7855 86.6149 36.1588 86.3982 36.4618C86.1815 36.7629 85.8802 36.9952 85.4946 37.1585L86.9979 39.9489V40.0085H85.7517L84.4097 37.4284ZM83.1134 36.4963H84.3094C84.5164 36.4963 84.7002 36.4679 84.8556 36.4131C85.0125 36.3582 85.143 36.2813 85.2464 36.1822C85.3517 36.0852 85.4283 35.9688 85.4816 35.834C85.5334 35.6991 85.5587 35.5499 85.5587 35.388C85.5587 35.2156 85.5355 35.0602 85.4865 34.9206C85.4364 34.7806 85.3609 34.6616 85.2606 34.5627C85.1603 34.4622 85.0297 34.3853 84.8712 34.332C84.7144 34.2788 84.5244 34.2521 84.3044 34.2521H83.1134V36.4963ZM91.0296 40.1012C90.6608 40.1012 90.3296 40.0397 90.0358 39.9158C89.7408 39.7935 89.4912 39.6255 89.2857 39.4105C89.082 39.1955 88.9235 38.9414 88.8135 38.6478C88.7018 38.3528 88.6474 38.0359 88.6474 37.6952V37.5116C88.6474 37.1192 88.7051 36.7646 88.8225 36.4476C88.9391 36.1306 89.0976 35.8607 89.2999 35.6379C89.5026 35.4164 89.7408 35.2437 90.0152 35.1229C90.2903 35.002 90.5853 34.9409 90.9006 34.9409C91.2614 34.9409 91.5758 35.002 91.8422 35.1229C92.109 35.2437 92.3302 35.4131 92.505 35.6315C92.6808 35.8496 92.8106 36.1086 92.8958 36.4083C92.9817 36.708 93.0242 37.0376 93.0242 37.3971V37.8757H89.7737C89.7893 38.0687 89.8305 38.2459 89.8962 38.4077C89.962 38.5709 90.0519 38.7108 90.1647 38.8283C90.2773 38.9475 90.4126 39.0403 90.5664 39.1077C90.7218 39.1751 90.8976 39.208 91.0937 39.208C91.3697 39.208 91.6087 39.1531 91.8126 39.0434C92.0163 38.9319 92.1937 38.7812 92.3448 38.5882L92.9455 39.1626C92.8672 39.2818 92.7685 39.398 92.6488 39.5094C92.5313 39.6208 92.3933 39.7213 92.2363 39.8091C92.0778 39.8954 91.8987 39.9662 91.7009 40.0196C91.502 40.0729 91.2777 40.1012 91.0296 40.1012ZM90.8959 35.8387C90.5886 35.8387 90.3421 35.9454 90.1538 36.1604C89.9658 36.3754 89.8444 36.6735 89.7926 37.0565H91.9209V36.9732C91.9117 36.8273 91.888 36.6846 91.8502 36.5481C91.8109 36.4131 91.7527 36.2908 91.6728 36.1855C91.5926 36.0802 91.4894 35.9955 91.3622 35.9328C91.2351 35.8702 91.0797 35.8387 90.8959 35.8387ZM97.8011 38.6573C97.8011 38.5773 97.7871 38.5035 97.7623 38.4345C97.7353 38.3654 97.6835 38.301 97.608 38.2414C97.5314 38.1802 97.4231 38.1253 97.2835 38.0735C97.1437 38.0202 96.9615 37.9715 96.7389 37.9261C96.4718 37.871 96.2287 37.8019 96.0103 37.7186C95.7908 37.6356 95.6023 37.5351 95.4473 37.4175C95.2905 37.2997 95.1682 37.1599 95.0814 37.0016C94.9934 36.8415 94.9496 36.6579 94.9496 36.449C94.9496 36.2468 94.995 36.0551 95.0835 35.8732C95.1724 35.6911 95.2997 35.5295 95.4674 35.393C95.634 35.2549 95.8362 35.1451 96.0751 35.0635C96.3117 34.9819 96.5771 34.9409 96.8726 34.9409C97.1815 34.9409 97.4593 34.9819 97.7072 35.0635C97.9537 35.1451 98.1623 35.2565 98.3333 35.3992C98.5058 35.542 98.6364 35.71 98.727 35.903C98.818 36.0961 98.8623 36.3047 98.8623 36.5275H97.7445C97.7445 36.4334 97.7273 36.3409 97.6899 36.2498C97.6539 36.1585 97.5988 36.0788 97.525 36.0083C97.4512 35.9376 97.3606 35.8825 97.2523 35.8401C97.1423 35.7992 97.0164 35.7791 96.8726 35.7791C96.7306 35.7791 96.6083 35.7963 96.5031 35.8306C96.3997 35.8668 96.3134 35.9125 96.2443 35.9688C96.1754 36.0256 96.1236 36.0913 96.0908 36.1666C96.0562 36.242 96.0406 36.3203 96.0406 36.4036C96.0406 36.4869 96.0546 36.5604 96.0858 36.625C96.1156 36.6891 96.1705 36.7473 96.2493 36.7991C96.3273 36.8507 96.4326 36.8997 96.5646 36.9434C96.6952 36.9891 96.8612 37.0314 97.0602 37.0754C97.3492 37.1365 97.6064 37.2086 97.8356 37.2919C98.0632 37.3735 98.2562 37.4754 98.4147 37.5947C98.5716 37.7141 98.6924 37.8554 98.7759 38.0169C98.8573 38.1801 98.8999 38.3732 98.8999 38.5977C98.8999 38.8174 98.8531 39.0197 98.757 39.2035C98.6612 39.3871 98.5264 39.547 98.3506 39.6804C98.1732 39.8124 97.9612 39.9158 97.7131 39.9898C97.4656 40.0634 97.1891 40.1012 96.8861 40.1012C96.5459 40.1012 96.2443 40.0523 95.9824 39.9551C95.7203 39.8595 95.5003 39.7322 95.3234 39.5768C95.1443 39.42 95.0106 39.2425 94.92 39.045C94.8306 38.8472 94.7847 38.6464 94.7847 38.4408H95.8691C95.8788 38.5946 95.915 38.7233 95.9758 38.8267C96.0373 38.9303 96.1144 39.0152 96.2097 39.0795C96.3041 39.1439 96.412 39.191 96.5317 39.2208C96.6509 39.2489 96.7732 39.2631 96.8991 39.2631C97.1938 39.2631 97.4167 39.208 97.5702 39.0952C97.7244 38.9837 97.8011 38.8378 97.8011 38.6573ZM103.184 40.1012C102.815 40.1012 102.484 40.0397 102.191 39.9158C101.896 39.7935 101.646 39.6255 101.44 39.4105C101.236 39.1955 101.078 38.9414 100.968 38.6478C100.857 38.3528 100.802 38.0359 100.802 37.6952V37.5116C100.802 37.1192 100.86 36.7646 100.978 36.4476C101.094 36.1306 101.252 35.8607 101.455 35.6379C101.657 35.4164 101.896 35.2437 102.17 35.1229C102.445 35.002 102.74 34.9409 103.055 34.9409C103.417 34.9409 103.73 35.002 103.997 35.1229C104.264 35.2437 104.485 35.4131 104.659 35.6315C104.835 35.8496 104.965 36.1086 105.05 36.4083C105.137 36.708 105.179 37.0376 105.179 37.3971V37.8757H101.928C101.944 38.0687 101.985 38.2459 102.051 38.4077C102.117 38.5709 102.207 38.7108 102.319 38.8283C102.432 38.9475 102.567 39.0403 102.721 39.1077C102.877 39.1751 103.052 39.208 103.249 39.208C103.525 39.208 103.763 39.1531 103.967 39.0434C104.171 38.9319 104.349 38.7812 104.499 38.5882L105.1 39.1626C105.022 39.2818 104.923 39.398 104.804 39.5094C104.686 39.6208 104.548 39.7213 104.391 39.8091C104.232 39.8954 104.053 39.9662 103.856 40.0196C103.656 40.0729 103.432 40.1012 103.184 40.1012ZM103.051 35.8387C102.743 35.8387 102.497 35.9454 102.308 36.1604C102.12 36.3754 102 36.6735 101.948 37.0565H104.075V36.9732C104.066 36.8273 104.042 36.6846 104.005 36.5481C103.966 36.4131 103.908 36.2908 103.827 36.1855C103.747 36.0802 103.644 35.9955 103.517 35.9328C103.39 35.8702 103.234 35.8387 103.051 35.8387ZM110.14 40.0085C110.108 39.9503 110.083 39.8812 110.063 39.8013C110.043 39.7213 110.026 39.6366 110.011 39.5439C109.937 39.6208 109.855 39.6929 109.765 39.7606C109.674 39.828 109.575 39.886 109.467 39.938C109.357 39.9882 109.238 40.0272 109.112 40.0572C108.984 40.0854 108.85 40.1012 108.705 40.1012C108.457 40.1012 108.228 40.0634 108.019 39.9882C107.811 39.9127 107.633 39.8091 107.484 39.6757C107.335 39.5425 107.219 39.3854 107.134 39.2035C107.051 39.023 107.009 38.8267 107.009 38.6147C107.009 38.3481 107.059 38.1127 107.159 37.9072C107.261 37.7016 107.409 37.5303 107.602 37.3924C107.795 37.2543 108.032 37.149 108.311 37.0768C108.592 37.0047 108.912 36.9687 109.27 36.9687H109.973V36.6423C109.973 36.3849 109.901 36.1793 109.758 36.0239C109.614 35.8702 109.394 35.7916 109.1 35.7916C108.969 35.7916 108.85 35.8103 108.741 35.8451C108.635 35.881 108.543 35.9281 108.468 35.9875C108.393 36.0473 108.335 36.1181 108.294 36.2011C108.252 36.2844 108.231 36.3738 108.231 36.4679H107.114C107.114 36.2718 107.162 36.0816 107.258 35.8997C107.355 35.7178 107.492 35.5562 107.671 35.4131C107.848 35.2705 108.063 35.1557 108.316 35.0696C108.569 34.9847 108.851 34.9409 109.165 34.9409C109.443 34.9409 109.702 34.9769 109.937 35.0493C110.172 35.1212 110.377 35.2298 110.549 35.3708C110.72 35.5137 110.853 35.6911 110.948 35.9047C111.044 36.1181 111.091 36.3676 111.091 36.6515V38.8598C111.091 39.3069 111.154 39.6631 111.279 39.9302V40.0085H110.14ZM108.912 39.2035C109.041 39.2035 109.16 39.1877 109.273 39.1531C109.384 39.1202 109.485 39.0748 109.576 39.0197C109.667 38.9648 109.746 38.9005 109.813 38.8297C109.88 38.7578 109.934 38.6838 109.973 38.6102V37.6732H109.372C108.957 37.6732 108.647 37.7456 108.439 37.888C108.23 38.0325 108.126 38.2367 108.126 38.5005C108.126 38.6008 108.142 38.6949 108.176 38.7812C108.209 38.8659 108.261 38.9414 108.329 39.0041C108.394 39.0668 108.477 39.1155 108.574 39.1517C108.67 39.1862 108.783 39.2035 108.912 39.2035ZM115.986 36.0535C115.913 36.0428 115.838 36.0334 115.762 36.027C115.689 36.0206 115.61 36.0175 115.53 36.0175C115.262 36.0175 115.042 36.0693 114.873 36.1744C114.705 36.278 114.579 36.4223 114.496 36.6061V40.0085H113.378V35.0334H114.446L114.474 35.5908C114.6 35.388 114.755 35.2298 114.94 35.1134C115.125 34.9991 115.343 34.9409 115.595 34.9409C115.659 34.9409 115.733 34.9488 115.814 34.9629C115.895 34.9755 115.954 34.9911 115.991 35.0053L115.986 36.0535ZM119.769 39.208C119.904 39.208 120.03 39.1877 120.149 39.147C120.266 39.1046 120.369 39.0464 120.456 38.9712C120.544 38.8957 120.615 38.8063 120.668 38.7027C120.722 38.5993 120.752 38.4846 120.758 38.3623H121.811C121.802 38.6008 121.742 38.8267 121.633 39.0386C121.525 39.2506 121.379 39.4342 121.197 39.5926C121.014 39.7495 120.802 39.8751 120.56 39.9645C120.319 40.0556 120.059 40.1012 119.783 40.1012C119.4 40.1012 119.066 40.0352 118.784 39.9032C118.5 39.7717 118.264 39.591 118.074 39.3651C117.886 39.1375 117.746 38.8723 117.653 38.5695C117.563 38.2665 117.515 37.9448 117.515 37.6041V37.4426C117.515 37.1019 117.563 36.7802 117.653 36.4774C117.746 36.1744 117.886 35.9078 118.074 35.6802C118.264 35.451 118.498 35.2705 118.78 35.1385C119.063 35.0069 119.396 34.9409 119.778 34.9409C120.078 34.9409 120.353 34.988 120.599 35.0789C120.845 35.1716 121.057 35.3003 121.233 35.4649C121.409 35.6315 121.547 35.8292 121.648 36.0585C121.747 36.2891 121.802 36.5417 121.811 36.818H120.758C120.752 36.686 120.725 36.5604 120.678 36.4412C120.629 36.3203 120.563 36.2167 120.48 36.1275C120.395 36.0395 120.293 35.9688 120.174 35.917C120.055 35.8638 119.92 35.8387 119.769 35.8387C119.542 35.8387 119.355 35.8858 119.209 35.9783C119.061 36.0724 118.945 36.1933 118.859 36.344C118.772 36.4947 118.715 36.6657 118.682 36.8587C118.65 37.0518 118.633 37.2465 118.633 37.4426V37.6041C118.633 37.8066 118.65 38.003 118.682 38.1943C118.715 38.3857 118.772 38.5568 118.859 38.7074C118.945 38.8581 119.06 38.979 119.206 39.0701C119.352 39.1626 119.54 39.208 119.769 39.208ZM124.876 35.5763C125.048 35.3772 125.251 35.222 125.483 35.1089C125.717 34.9975 125.976 34.9409 126.26 34.9409C126.503 34.9409 126.723 34.9755 126.922 35.0429C127.122 35.1106 127.293 35.2187 127.433 35.3663C127.573 35.5153 127.683 35.7086 127.759 35.947C127.836 36.1838 127.875 36.4712 127.875 36.8083V40.0085H126.758V36.7991C126.758 36.4554 126.682 36.2122 126.535 36.0708C126.385 35.9281 126.168 35.856 125.879 35.856C125.646 35.856 125.446 35.9108 125.279 36.0175C125.111 36.1242 124.978 36.2702 124.876 36.454V40.0085H123.758V32.946H124.876V35.5763ZM132.291 38.2022C132.291 38.0058 132.323 37.827 132.384 37.6654C132.445 37.5052 132.53 37.3546 132.641 37.215C132.751 37.0754 132.883 36.942 133.037 36.8147C133.189 36.6877 133.358 36.559 133.542 36.4272C133.435 36.2922 133.338 36.1621 133.251 36.0365C133.167 35.9108 133.093 35.7869 133.033 35.666C132.974 35.5451 132.927 35.4228 132.894 35.3003C132.859 35.178 132.844 35.0524 132.844 34.9237C132.844 34.6568 132.884 34.4184 132.969 34.2079C133.054 33.9978 133.172 33.8204 133.325 33.6744C133.479 33.5299 133.664 33.417 133.883 33.3385C134.099 33.2616 134.342 33.2223 134.609 33.2223C134.863 33.2223 135.092 33.2616 135.298 33.3416C135.504 33.4218 135.678 33.5299 135.822 33.6649C135.966 33.8014 136.078 33.9602 136.155 34.1421C136.233 34.3226 136.273 34.514 136.273 34.7165C136.273 34.8749 136.25 35.0242 136.208 35.1607C136.166 35.2972 136.105 35.4242 136.025 35.5435C135.945 35.6629 135.849 35.776 135.738 35.8825C135.625 35.9875 135.502 36.0897 135.367 36.1871L134.912 36.5181L136.204 38.0453C136.293 37.871 136.362 37.681 136.411 37.4754C136.46 37.2699 136.484 37.0501 136.484 36.818H137.455C137.455 37.2133 137.409 37.5807 137.316 37.9211C137.224 38.2618 137.078 38.5695 136.875 38.8456L137.86 40.0085H136.563L136.185 39.5628C135.94 39.7464 135.672 39.8812 135.381 39.9692C135.089 40.0572 134.788 40.1012 134.476 40.1012C134.138 40.1012 133.834 40.0542 133.566 39.96C133.296 39.8673 133.066 39.7353 132.878 39.5676C132.688 39.398 132.544 39.1971 132.443 38.9648C132.341 38.7311 132.291 38.4768 132.291 38.2022ZM134.507 39.208C134.694 39.208 134.878 39.1768 135.057 39.1124C135.236 39.0481 135.405 38.9539 135.565 38.8314L134.102 37.1066L133.959 37.2086C133.834 37.303 133.735 37.3971 133.663 37.488C133.592 37.5807 133.535 37.6671 133.498 37.7487C133.46 37.8303 133.435 37.9055 133.425 37.9762C133.413 38.0467 133.409 38.1094 133.409 38.1645C133.409 38.3122 133.432 38.4486 133.479 38.574C133.528 38.6996 133.597 38.8096 133.691 38.9052C133.785 38.9994 133.9 39.0748 134.036 39.128C134.173 39.1815 134.33 39.208 134.507 39.208ZM133.892 34.8955C133.892 35.0493 133.935 35.2047 134.02 35.363C134.106 35.52 134.22 35.688 134.364 35.8652L134.769 35.5908C134.865 35.5264 134.945 35.4635 135.013 35.4039C135.08 35.344 135.135 35.2816 135.179 35.217C135.221 35.1529 135.253 35.0838 135.273 35.0084C135.293 34.9329 135.303 34.8482 135.303 34.7526C135.303 34.6772 135.287 34.6003 135.257 34.5234C135.226 34.4463 135.181 34.3791 135.121 34.3179C135.062 34.258 134.987 34.2112 134.901 34.1735C134.813 34.1374 134.714 34.1184 134.604 34.1184C134.487 34.1184 134.385 34.1388 134.295 34.1811C134.207 34.222 134.132 34.2788 134.073 34.3507C134.013 34.4231 133.967 34.5062 133.937 34.5986C133.906 34.6928 133.892 34.7919 133.892 34.8955ZM147.169 37.8286C147.138 38.1567 147.061 38.4595 146.938 38.7372C146.816 39.0152 146.645 39.2537 146.428 39.4562C146.21 39.6584 145.945 39.8169 145.631 39.9302C145.315 40.0431 144.953 40.1012 144.544 40.1012C144.132 40.1012 143.76 40.0258 143.427 39.8782C143.095 39.7291 142.812 39.5172 142.577 39.2425C142.343 38.9681 142.163 38.6369 142.037 38.2476C141.912 37.8584 141.849 37.4222 141.849 36.9373V36.3944C141.849 35.9142 141.913 35.4777 142.042 35.0869C142.171 34.6961 142.354 34.3619 142.593 34.087C142.833 33.8109 143.122 33.5975 143.46 33.4468C143.8 33.2976 144.178 33.2223 144.598 33.2223C144.997 33.2223 145.349 33.2789 145.656 33.395C145.962 33.5098 146.221 33.6683 146.435 33.8719C146.648 34.0761 146.814 34.3195 146.937 34.602C147.057 34.8828 147.135 35.1919 147.169 35.5264H146.009C145.986 35.3145 145.943 35.1245 145.884 34.9551C145.824 34.7869 145.738 34.6426 145.628 34.5251C145.518 34.4075 145.378 34.3178 145.209 34.2566C145.041 34.1955 144.837 34.1639 144.598 34.1639C144.335 34.1639 144.104 34.2142 143.906 34.3148C143.708 34.4137 143.543 34.558 143.412 34.7463C143.28 34.9346 143.181 35.1669 143.115 35.4432C143.049 35.7192 143.017 36.0334 143.017 36.3849V36.9373C143.017 37.2715 143.046 37.5743 143.105 37.8476C143.162 38.1205 143.252 38.3545 143.376 38.5489C143.498 38.7436 143.655 38.8943 143.848 39.001C144.041 39.1094 144.273 39.1626 144.544 39.1626C144.794 39.1626 145.006 39.1328 145.179 39.0748C145.353 39.0166 145.496 38.9303 145.609 38.8174C145.723 38.7044 145.811 38.5646 145.874 38.3999C145.937 38.2336 145.982 38.0437 146.009 37.8286H147.169ZM149.01 37.4754C149.01 37.113 149.063 36.7788 149.17 36.4712C149.275 36.1621 149.427 35.8952 149.625 35.6677C149.823 35.4415 150.062 35.2643 150.348 35.134C150.634 35.0053 150.957 34.9409 151.318 34.9409C151.684 34.9409 152.01 35.0053 152.298 35.134C152.587 35.2643 152.83 35.4415 153.027 35.6677C153.223 35.8952 153.375 36.1621 153.48 36.4712C153.583 36.7788 153.636 37.113 153.636 37.4754V37.571C153.636 37.9339 153.583 38.2696 153.48 38.5788C153.375 38.8879 153.223 39.1548 153.027 39.3807C152.83 39.6066 152.587 39.7824 152.301 39.9096C152.013 40.0369 151.689 40.1012 151.328 40.1012C150.963 40.1012 150.637 40.0369 150.35 39.9096C150.064 39.7824 149.823 39.6066 149.625 39.3807C149.427 39.1548 149.275 38.8879 149.17 38.5788C149.063 38.2696 149.01 37.9339 149.01 37.571V37.4754ZM150.127 37.571C150.127 37.7957 150.15 38.0075 150.196 38.2069C150.243 38.4046 150.315 38.5788 150.413 38.728C150.512 38.8771 150.636 38.9932 150.788 39.0795C150.938 39.1657 151.119 39.208 151.328 39.208C151.534 39.208 151.712 39.1657 151.863 39.0795C152.015 38.9932 152.139 38.8771 152.237 38.728C152.332 38.5788 152.404 38.4046 152.451 38.2069C152.5 38.0075 152.524 37.7957 152.524 37.571V37.4754C152.524 37.2543 152.5 37.0456 152.451 36.8479C152.404 36.6501 152.332 36.4774 152.233 36.3281C152.136 36.1793 152.01 36.0601 151.858 35.9721C151.708 35.8825 151.527 35.8387 151.318 35.8387C151.11 35.8387 150.932 35.8825 150.783 35.9721C150.634 36.0601 150.512 36.1793 150.413 36.3281C150.315 36.4774 150.243 36.6501 150.196 36.8479C150.15 37.0456 150.127 37.2543 150.127 37.4754V37.571ZM156.737 35.0334L156.77 35.6078C156.945 35.3959 157.155 35.2326 157.4 35.1167C157.646 35.0006 157.917 34.9409 158.219 34.9409C158.458 34.9409 158.674 34.9738 158.868 35.0398C159.063 35.1056 159.229 35.2125 159.368 35.3599C159.506 35.5073 159.612 35.6991 159.688 35.9343C159.763 36.1715 159.801 36.4568 159.801 36.7944V40.0085H158.683V36.7849C158.683 36.6139 158.663 36.4696 158.625 36.3504C158.588 36.2326 158.531 36.137 158.458 36.0629C158.384 35.9894 158.293 35.9376 158.184 35.9047C158.074 35.8732 157.95 35.856 157.809 35.856C157.58 35.856 157.379 35.9125 157.21 36.0223C157.038 36.132 156.903 36.2813 156.802 36.4679V40.0085H155.684V35.0334H156.737ZM164.847 38.6573C164.847 38.5773 164.834 38.5035 164.809 38.4345C164.782 38.3654 164.73 38.301 164.655 38.2414C164.578 38.1802 164.469 38.1253 164.33 38.0735C164.19 38.0202 164.008 37.9715 163.785 37.9261C163.519 37.871 163.275 37.8019 163.057 37.7186C162.837 37.6356 162.649 37.5351 162.494 37.4175C162.337 37.2997 162.214 37.1599 162.128 37.0016C162.04 36.8415 161.996 36.6579 161.996 36.449C161.996 36.2468 162.042 36.0551 162.13 35.8732C162.219 35.6911 162.346 35.5295 162.514 35.393C162.68 35.2549 162.883 35.1451 163.121 35.0635C163.358 34.9819 163.623 34.9409 163.919 34.9409C164.228 34.9409 164.505 34.9819 164.753 35.0635C165 35.1451 165.209 35.2565 165.379 35.3992C165.552 35.542 165.682 35.71 165.774 35.903C165.865 36.0961 165.909 36.3047 165.909 36.5275H164.791C164.791 36.4334 164.774 36.3409 164.736 36.2498C164.7 36.1585 164.645 36.0788 164.571 36.0083C164.498 35.9376 164.407 35.8825 164.298 35.8401C164.188 35.7992 164.063 35.7791 163.919 35.7791C163.777 35.7791 163.655 35.7963 163.55 35.8306C163.446 35.8668 163.36 35.9125 163.291 35.9688C163.222 36.0256 163.17 36.0913 163.137 36.1666C163.102 36.242 163.087 36.3203 163.087 36.4036C163.087 36.4869 163.101 36.5604 163.133 36.625C163.162 36.6891 163.217 36.7473 163.295 36.7991C163.374 36.8507 163.479 36.8997 163.611 36.9434C163.741 36.9891 163.908 37.0314 164.107 37.0754C164.396 37.1365 164.653 37.2086 164.882 37.2919C165.11 37.3735 165.303 37.4754 165.461 37.5947C165.618 37.7141 165.739 37.8554 165.822 38.0169C165.904 38.1801 165.946 38.3732 165.946 38.5977C165.946 38.8174 165.899 39.0197 165.803 39.2035C165.708 39.3871 165.572 39.547 165.397 39.6804C165.22 39.8124 165.008 39.9158 164.76 39.9898C164.512 40.0634 164.236 40.1012 163.933 40.1012C163.592 40.1012 163.291 40.0523 163.028 39.9551C162.766 39.8595 162.547 39.7322 162.37 39.5768C162.191 39.42 162.057 39.2425 161.966 39.045C161.877 38.8472 161.831 38.6464 161.831 38.4408H162.916C162.925 38.5946 162.961 38.7233 163.023 38.8267C163.084 38.9303 163.161 39.0152 163.256 39.0795C163.35 39.1439 163.459 39.191 163.578 39.2208C163.697 39.2489 163.82 39.2631 163.945 39.2631C164.24 39.2631 164.463 39.208 164.617 39.0952C164.771 38.9837 164.847 38.8378 164.847 38.6573ZM171.053 39.5205C170.897 39.7055 170.703 39.8467 170.474 39.9489C170.245 40.0494 169.971 40.1012 169.656 40.1012C169.41 40.1012 169.187 40.0667 168.986 39.9976C168.785 39.9286 168.612 39.8186 168.47 39.6709C168.325 39.5219 168.214 39.3305 168.134 39.0952C168.053 38.8612 168.014 38.5802 168.014 38.2523V35.0334H169.132V38.2618C169.132 38.4423 169.152 38.5913 169.196 38.7089C169.239 38.8283 169.297 38.9225 169.367 38.9946C169.439 39.0668 169.524 39.1172 169.618 39.147C169.714 39.1751 169.813 39.1893 169.918 39.1893C170.205 39.1893 170.439 39.1375 170.616 39.0339C170.794 38.9289 170.927 38.7876 171.016 38.6055V35.0334H172.134V40.0085H171.081L171.053 39.5205ZM175.58 40.0085H174.463V32.946H175.58V40.0085ZM179.317 33.8251V35.0334H180.194V35.8607H179.317V38.6384C179.317 38.7514 179.33 38.8439 179.353 38.9147C179.378 38.9852 179.413 39.0386 179.46 39.0779C179.505 39.1155 179.56 39.1422 179.623 39.1564C179.686 39.169 179.754 39.1768 179.832 39.1768C179.909 39.1768 179.983 39.1704 180.054 39.1595C180.126 39.15 180.183 39.1392 180.223 39.1297V39.9946C180.133 40.0196 180.03 40.0431 179.912 40.0667C179.794 40.0887 179.653 40.1012 179.487 40.1012C179.303 40.1012 179.132 40.0759 178.975 40.0272C178.816 39.9773 178.68 39.8985 178.565 39.7871C178.451 39.6776 178.36 39.533 178.295 39.3556C178.231 39.1782 178.199 38.9601 178.199 38.7027V35.8607H177.38V35.0334H178.199V33.8251H179.317ZM183.356 40.0085H182.239V35.0334H183.356V40.0085ZM182.17 33.7418C182.17 33.5694 182.225 33.4282 182.333 33.3134C182.443 33.2006 182.598 33.1438 182.801 33.1438C183.003 33.1438 183.158 33.2006 183.268 33.3134C183.38 33.4282 183.435 33.5694 183.435 33.7418C183.435 33.91 183.38 34.051 183.268 34.1624C183.158 34.2739 183.003 34.3306 182.801 34.3306C182.598 34.3306 182.443 34.2739 182.333 34.1624C182.225 34.051 182.17 33.91 182.17 33.7418ZM186.729 35.0334L186.762 35.6078C186.936 35.3959 187.147 35.2326 187.391 35.1167C187.637 35.0006 187.909 34.9409 188.21 34.9409C188.449 34.9409 188.666 34.9738 188.86 35.0398C189.055 35.1056 189.221 35.2125 189.359 35.3599C189.497 35.5073 189.604 35.6991 189.679 35.9343C189.755 36.1715 189.793 36.4568 189.793 36.7944V40.0085H188.675V36.7849C188.675 36.6139 188.655 36.4696 188.617 36.3504C188.579 36.2326 188.523 36.137 188.449 36.0629C188.375 35.9894 188.284 35.9376 188.176 35.9047C188.066 35.8732 187.942 35.856 187.801 35.856C187.571 35.856 187.371 35.9125 187.201 36.0223C187.03 36.132 186.895 36.2813 186.793 36.4679V40.0085H185.676V35.0334H186.729ZM191.855 37.4849C191.855 37.1066 191.901 36.7629 191.993 36.449C192.085 36.137 192.217 35.8683 192.391 35.6457C192.564 35.4212 192.772 35.2485 193.018 35.1262C193.264 35.002 193.54 34.9409 193.846 34.9409C194.146 34.9409 194.404 34.9928 194.623 35.0961C194.841 35.1983 195.028 35.344 195.183 35.534L195.235 35.0334H196.24V39.8704C196.24 40.2046 196.186 40.5013 196.076 40.7617C195.964 41.0224 195.811 41.2419 195.613 41.4194C195.416 41.5982 195.178 41.7333 194.901 41.8274C194.623 41.9201 194.32 41.967 193.989 41.967C193.851 41.967 193.696 41.953 193.529 41.9232C193.359 41.8951 193.19 41.8461 193.018 41.7803C192.846 41.7146 192.683 41.6297 192.526 41.5263C192.369 41.421 192.236 41.2937 192.126 41.1447L192.655 40.4731C192.838 40.6912 193.039 40.8466 193.254 40.9422C193.471 41.0364 193.694 41.0834 193.925 41.0851C194.294 41.0834 194.587 40.9846 194.802 40.7837C195.016 40.5829 195.123 40.2879 195.123 39.8985V39.5628C194.968 39.7372 194.783 39.8704 194.573 39.9629C194.361 40.0542 194.116 40.1012 193.837 40.1012C193.534 40.1012 193.259 40.0369 193.015 39.9096C192.772 39.7824 192.564 39.6066 192.391 39.3838C192.217 39.1595 192.085 38.8943 191.993 38.5851C191.901 38.2776 191.855 37.9434 191.855 37.5807V37.4849ZM192.967 37.5807C192.967 37.8019 192.989 38.0091 193.035 38.2036C193.079 38.3983 193.148 38.5695 193.243 38.7169C193.339 38.8645 193.458 38.979 193.603 39.0637C193.745 39.1484 193.92 39.1893 194.122 39.1893C194.373 39.1893 194.579 39.1375 194.737 39.0308C194.897 38.9255 195.026 38.7857 195.123 38.6102V36.4223C195.026 36.2484 194.896 36.1103 194.735 36.0083C194.574 35.9078 194.373 35.856 194.13 35.856C193.929 35.856 193.753 35.8997 193.606 35.9846C193.46 36.0708 193.339 36.1871 193.247 36.3345C193.152 36.4821 193.083 36.6546 193.036 36.8523C192.991 37.0501 192.967 37.2604 192.967 37.4849V37.5807Z" fill="#02D0CC"/>
<path d="M73.8897 15.1092C73.8897 15.6753 73.7608 16.2875 73.5067 16.945C73.2484 17.603 72.7658 18.1815 72.054 18.6813C72.4867 18.8809 72.8569 19.1308 73.1734 19.4305C73.4857 19.7302 73.744 20.0508 73.9441 20.3923C74.1435 20.7335 74.2897 21.0873 74.3896 21.4538C74.4891 21.8201 74.5393 22.1782 74.5393 22.5278C74.5393 23.1772 74.4435 23.8142 74.2519 24.4384C74.0605 25.0632 73.7359 25.6253 73.282 26.1246C72.824 26.6242 72.2165 27.028 71.4588 27.336C70.7049 27.644 69.7603 27.7983 68.6317 27.7983H61.5508V10.3135H68.5567C69.3019 10.3135 70.0014 10.4468 70.651 10.7133C71.2961 10.9795 71.8622 11.3334 72.3452 11.7746C72.8278 12.2159 73.2027 12.728 73.4776 13.3108C73.7527 13.8936 73.8897 14.4931 73.8897 15.1092ZM65.0228 17.1325H68.1695C68.7859 17.1325 69.2808 16.9869 69.6562 16.6954C70.0305 16.4042 70.2181 16.0168 70.2181 15.5338C70.2181 15.051 70.0305 14.6388 69.6562 14.2974C69.2808 13.9562 68.7859 13.7853 68.1695 13.7853H65.0228V17.1325ZM68.195 24.3263C69.1439 24.3263 69.8266 24.1472 70.2429 23.7893C70.6593 23.4312 70.8672 23.0106 70.8672 22.5278C70.8672 22.278 70.8258 22.0366 70.7428 21.8035C70.6593 21.5703 70.5178 21.3662 70.3179 21.1914C70.1182 21.0166 69.8434 20.875 69.4933 20.7667C69.1439 20.6587 68.711 20.6045 68.195 20.6045H65.0228V24.3263H68.195ZM88.6075 27.7983H78.0917V10.3135H81.5632V24.3263H88.6075V27.7983ZM99.0537 10.1387L106.922 27.7983H103.101L101.676 24.601H95.0076C94.7907 25.1006 94.5534 25.6376 94.2958 26.2119C94.0375 26.7865 93.8082 27.3152 93.6088 27.7983H89.8116L97.5802 10.1387H99.0537ZM100.128 21.129L98.3296 17.0826L96.5313 21.129H100.128ZM123.063 24.8758C122.081 25.858 121.019 26.62 119.879 27.1612C118.738 27.7025 117.535 27.9731 116.269 27.9731C114.921 27.9731 113.697 27.719 112.597 27.2111C111.499 26.7035 110.562 26.0331 109.787 25.2006C109.013 24.3677 108.418 23.4188 108.002 22.353C107.585 21.2872 107.377 20.1966 107.377 19.0808C107.377 17.7821 107.623 16.5829 108.114 15.4839C108.605 14.385 109.263 13.4399 110.087 12.649C110.911 11.8581 111.861 11.242 112.935 10.8007C114.009 10.3594 115.12 10.1387 116.269 10.1387C117.435 10.1387 118.588 10.3843 119.729 10.8755C120.869 11.3667 121.889 12.0704 122.788 12.9862L120.366 15.4341C119.783 14.8514 119.137 14.4017 118.43 14.0853C117.722 13.7687 117.002 13.6105 116.269 13.6105C115.52 13.6105 114.817 13.7563 114.159 14.0478C113.501 14.3391 112.927 14.7305 112.435 15.2219C111.944 15.7128 111.557 16.2917 111.273 16.9577C110.99 17.6237 110.849 18.3314 110.849 19.0808C110.849 19.8303 110.99 20.5338 111.273 21.1914C111.557 21.8494 111.944 22.4238 112.435 22.915C112.927 23.4061 113.501 23.7933 114.159 24.0765C114.817 24.3594 115.52 24.5011 116.269 24.5011C117.102 24.5011 117.872 24.322 118.58 23.9639C119.287 23.606 119.966 23.1024 120.615 22.4528L123.063 24.8758ZM133.06 18.4812L140.853 27.7983H136.333L130.737 21.054C130.587 21.2373 130.429 21.4245 130.262 21.616C130.096 21.8075 129.921 21.9949 129.738 22.1782V27.7983H126.291V10.3135H129.738V16.9328L135.683 10.3135H140.354L133.06 18.4812ZM157.819 27.7983H153.573L148.827 21.129H146.729V27.7983H143.282V10.3135H150.351C151.083 10.3135 151.774 10.4551 152.424 10.7382C153.073 11.0213 153.643 11.4084 154.135 11.8996C154.626 12.3908 155.017 12.9612 155.309 13.6105C155.6 14.2601 155.746 14.9594 155.746 15.7088C155.746 16.8079 155.463 17.7943 154.897 18.6686C154.33 19.543 153.589 20.1881 152.674 20.6045L157.819 27.7983ZM149.701 17.682C150.584 17.682 151.233 17.4864 151.65 17.095C152.066 16.7038 152.274 16.2415 152.274 15.7088C152.274 15.1759 152.066 14.722 151.65 14.3475C151.233 13.9728 150.584 13.7853 149.701 13.7853H146.729V17.682H149.701ZM160.697 27.7983V10.3135H164.144V27.7983H160.697ZM168.646 27.7983V10.3135H174.715C176.014 10.3135 177.184 10.5258 178.225 10.9504C179.265 11.3751 180.153 11.9745 180.885 12.7489C181.618 13.5231 182.184 14.4474 182.583 15.5216C182.983 16.5954 183.183 17.7821 183.183 19.0808C183.183 20.313 182.983 21.4578 182.583 22.5152C182.184 23.5728 181.618 24.4926 180.885 25.2754C180.153 26.0579 179.265 26.6742 178.225 27.1239C177.184 27.5733 176.014 27.7983 174.715 27.7983H168.646ZM172.093 24.3263H174.715C175.432 24.3263 176.093 24.1929 176.701 23.9265C177.309 23.6602 177.838 23.2897 178.287 22.8149C178.737 22.3404 179.086 21.7826 179.336 21.1414C179.586 20.5005 179.711 19.8134 179.711 19.0808C179.711 18.348 179.586 17.6612 179.336 17.0202C179.086 16.3791 178.737 15.8213 178.287 15.3465C177.838 14.872 177.309 14.4973 176.701 14.2226C176.093 13.9477 175.432 13.8104 174.715 13.8104H172.093V24.3263ZM194.229 17.9068H201.073V25.3504C200.124 26.1996 199.137 26.849 198.113 27.2987C197.089 27.7481 195.961 27.9731 194.729 27.9731C193.38 27.9731 192.156 27.719 191.057 27.2111C189.958 26.7035 189.021 26.0371 188.247 25.2129C187.472 24.3888 186.877 23.4436 186.461 22.3781C186.045 21.3123 185.836 20.2132 185.836 19.0808C185.836 17.732 186.09 16.5037 186.598 15.3965C187.106 14.2892 187.772 13.3483 188.596 12.574C189.42 11.7997 190.366 11.2001 191.431 10.7757C192.497 10.351 193.596 10.1387 194.729 10.1387C195.91 10.1387 197.06 10.3801 198.175 10.863C199.291 11.346 200.307 12.0453 201.223 12.9611L198.85 15.459C198.233 14.8762 197.572 14.4223 196.864 14.0977C196.156 13.7729 195.445 13.6105 194.729 13.6105C193.979 13.6105 193.275 13.7521 192.618 14.0352C191.96 14.3182 191.386 14.7096 190.894 15.2092C190.403 15.7088 190.016 16.2917 189.733 16.9577C189.45 17.6237 189.308 18.3314 189.308 19.0808C189.308 19.8303 189.45 20.5338 189.733 21.1914C190.016 21.8494 190.403 22.4238 190.894 22.915C191.386 23.4061 191.96 23.7933 192.618 24.0765C193.275 24.3594 193.979 24.5011 194.729 24.5011C195.228 24.5011 195.728 24.4302 196.227 24.2887C196.726 24.1472 197.193 23.9514 197.626 23.702V21.3788H194.229V17.9068ZM208.872 13.7853V17.3073H214.542V20.8042H208.872V24.3263H216.64V27.7983H205.4V10.3135H216.64V13.7853H208.872Z" fill="white"/>
<path d="M5.66571 26.7792C4.36972 28.0753 2.26802 28.0753 0.972011 26.7792C-0.324004 25.4833 -0.324004 23.3815 0.972011 22.0855L22.0857 0.972006C23.3817 -0.324002 25.4833 -0.324002 26.7792 0.972006L47.8931 22.0855L48.5159 22.9487C48.3605 22.6374 48.1528 22.3452 47.8931 22.0855L31.4652 5.65795C28.9858 3.55269 26.0896 6.16958 24.4323 8.01219L5.66571 26.7792ZM48.8466 24.0829C48.8516 24.129 48.8554 24.1752 48.858 24.2213C48.8554 24.1749 48.8516 24.129 48.8466 24.0829ZM48.8577 24.6514C48.8554 24.6944 48.8514 24.737 48.8466 24.7798C48.8514 24.737 48.8554 24.6942 48.8577 24.6514ZM48.6474 25.6163C48.6309 25.6596 48.6136 25.7026 48.5954 25.7454L48.6474 25.6163ZM48.1982 26.4286C48.1651 26.4726 48.131 26.5157 48.0948 26.5585C48.1306 26.5157 48.1651 26.4726 48.1982 26.4286Z" fill="#02D0CC"/>
<path d="M48.5163 22.9493C49.1368 24.1916 48.9294 25.743 47.893 26.7791C46.5971 28.0752 44.4953 28.0752 43.1992 26.7791L24.4323 8.0121C26.0896 6.1695 28.9858 3.55261 31.4649 5.65787L47.893 22.0854L48.5163 22.9493Z" fill="url(#paint0_linear_624_265)"/>
<path d="M5.66571 43.0279C4.36972 44.324 2.26802 44.324 0.972011 43.0279C-0.324004 41.7318 -0.324004 39.6299 0.972011 38.3341L22.0857 17.2205C23.3817 15.9242 25.4833 15.9242 26.7792 17.2205L47.8931 38.3341L48.5159 39.197C48.3605 38.8857 48.1528 38.5938 47.8931 38.3341L31.4652 21.9064C28.9858 19.8011 26.0896 22.4178 24.4323 24.2609L5.66571 43.0279ZM48.8466 40.3313C48.8516 40.3775 48.8554 40.4236 48.858 40.4697C48.8554 40.4231 48.8516 40.3775 48.8466 40.3313ZM48.8577 40.8998C48.8554 40.9429 48.8514 40.9854 48.8466 41.0282C48.8514 40.9854 48.8554 40.9426 48.8577 40.8998ZM48.6474 41.865C48.6309 41.908 48.6136 41.9511 48.5954 41.9939L48.6474 41.865ZM48.1982 42.6768C48.1651 42.7208 48.131 42.7639 48.0948 42.8067C48.1306 42.7639 48.1651 42.7208 48.1982 42.6768Z" fill="#02D0CC"/>
<path d="M48.5163 39.1978C49.1368 40.4404 48.9294 41.9915 47.893 43.0279C46.5971 44.324 44.4953 44.324 43.1992 43.0279L24.4323 24.261C26.0896 22.4178 28.9858 19.8012 31.4649 21.9064L47.893 38.3341L48.5163 39.1978Z" fill="url(#paint1_linear_624_265)"/>
<path d="M219.56 0.473145C219.092 0.473145 218.635 0.611884 218.246 0.871818C217.857 1.13175 217.553 1.50121 217.374 1.93346C217.195 2.36571 217.149 2.84136 217.24 3.30024C217.331 3.75912 217.556 4.18062 217.887 4.51147C218.218 4.8423 218.64 5.0676 219.098 5.15888C219.557 5.25015 220.033 5.20331 220.465 5.02426C220.897 4.84521 221.267 4.54201 221.527 4.15299C221.787 3.76397 221.926 3.3066 221.926 2.83874C221.926 2.21134 221.676 1.60965 221.233 1.16601C220.789 0.722376 220.187 0.473145 219.56 0.473145ZM219.56 4.73121C219.186 4.73121 218.82 4.62022 218.508 4.41228C218.197 4.20432 217.955 3.90876 217.812 3.56296C217.668 3.21716 217.631 2.83663 217.704 2.46954C217.777 2.10243 217.957 1.76522 218.222 1.50056C218.486 1.23589 218.824 1.05565 219.191 0.982627C219.558 0.909606 219.938 0.947081 220.284 1.09032C220.63 1.23356 220.926 1.47612 221.134 1.78733C221.342 2.09855 221.452 2.46443 221.452 2.83874C221.452 3.34064 221.253 3.82202 220.898 4.17693C220.543 4.53181 220.062 4.73121 219.56 4.73121Z" fill="white"/>
<path d="M220.506 2.36568C220.506 2.17747 220.431 1.99696 220.298 1.86387C220.165 1.73078 219.985 1.65601 219.797 1.65601H218.614V4.0216H219.087V3.07536H219.432L220.064 4.0216H220.632L219.981 3.04697C220.131 3.00657 220.264 2.91805 220.359 2.79497C220.453 2.67189 220.505 2.52108 220.506 2.36568ZM219.797 2.60224H219.087V2.12912H219.797C219.859 2.12912 219.919 2.15405 219.964 2.19841C220.008 2.24277 220.033 2.30294 220.033 2.36568C220.033 2.42842 220.008 2.4886 219.964 2.53295C219.919 2.57731 219.859 2.60224 219.797 2.60224Z" fill="white"/>
</g>
<defs>
<linearGradient id="paint0_linear_624_265" x1="40.9067" y1="27.0464" x2="32.3913" y2="5.58136" gradientUnits="userSpaceOnUse">
<stop stop-color="#01D0CC"/>
<stop offset="0.460938" stop-color="#00D0CD"/>
<stop offset="1" stop-color="#008B8A"/>
</linearGradient>
<linearGradient id="paint1_linear_624_265" x1="40.9067" y1="43.2952" x2="32.3913" y2="21.8296" gradientUnits="userSpaceOnUse">
<stop stop-color="#01D0CC"/>
<stop offset="0.460938" stop-color="#00D0CD"/>
<stop offset="1" stop-color="#008B8A"/>
</linearGradient>
<clipPath id="clip0_624_265">
<rect width="222.366" height="44" fill="white"/>
</clipPath>
</defs>
</svg>
